# Alias OBJ Model File
# Exported from SketchUp, (c) 2000-2012 Trimble Navigation Limited
# File units = meters

mtllib cube.mtl

g Mesh1 Model

usemtl FrontColor
v 0.05 0.1 0.05
vt 1.9685 -1.9685
vn 0 1 -0
v 0.05 0.1 -0.05
vt 1.9685 1.9685
v -0.05 0.1 -0.05
vt -1.9685 1.9685
v -0.05 0.1 0.05
vt -1.9685 -1.9685
f 1/1/1 2/2/1 3/3/1 4/4/1 

v 0.05 0 0.05
vt -1.9685 0
vn 1 0 -0
v 0.05 0 -0.05
vt 1.9685 0
vt 1.9685 3.93701
vt -1.9685 3.93701
f 5/5/2 6/6/2 2/7/2 1/8/2 

vn 0 -1 -0
v -0.05 0 0.05
v -0.05 0 -0.05
f 6/3/3 5/4/3 7/1/3 8/2/3 

vn 0 0 1
f 7/5/4 5/6/4 1/7/4 4/8/4 

vn -1 0 -0
f 8/5/5 7/6/5 4/7/5 3/8/5 

vn 0 0 -1
f 6/5/6 8/6/6 3/7/6 2/8/6 

