# Alias OBJ Model File
# Exported from SketchUp, (c) 2000-2012 Trimble Navigation Limited
# File units = meters

mtllib site21c.mtl

g Mesh1 G_20220606151000_0 Model

usemtl FrontColor
v 14.4536 -0.05 -31.3426
vt -14.4463 31.3267
vn 0 -1 -0
v 0.12579 -0.05 -26.8294
vt -0.125726 26.8158
v 1.75966e-15 -0.05 -26.8953
vt -1.77636e-15 26.8817
f 1/1/1 2/2/1 3/3/1

v 14.3881 -0.05 -31.2178
vt -14.3808 31.202
f 2/2/1 1/1/1 4/4/1

v 18.5637 -0.05 -17.9602
vt -18.5543 17.9511
f 4/4/1 1/1/1 5/5/1

v 18.6891 -0.05 -17.895
vt -18.6796 17.8859
f 5/5/1 1/1/1 6/6/1

vt 11.4482 -1.9685
vn 0.95381 0 -0.300411
vt 25.5399 -1.9685
v 14.4536 0.05 -31.3426
vt 25.5399 1.9685
v 18.6891 0.05 -17.895
vt 11.4482 1.9685
f 6/7/2 1/8/2 7/9/2 8/10/2 

vt -23.0202 -1.9685
vn -0.294085 0 -0.955779
vt -7.9055 -1.9685
v 1.75966e-15 0.05 -26.8953
vt -7.9055 1.9685
vt -23.0202 1.9685
f 1/11/3 3/12/3 9/13/3 7/14/3 

vt -25.6255 -1.9685
vn -0.95327 0 0.302119
v 8.52391 -0.05 -0
vt 2.57394 -1.9685
v 8.52391 0.05 -0
vt 2.57394 1.9685
vt -25.6255 1.9685
f 3/15/4 10/16/4 11/17/4 9/18/4 

vt -8.5196 0
f 2/2/1 10/19/1 3/3/1

v 8.58956 -0.05 -0.123807
vt -8.58521 0.123744
f 10/19/1 2/2/1 12/20/1

vt -2.47579 -1.9685
vn 0.95327 0 -0.302119
vt 25.5247 -1.9685
v 0.12579 0.05 -26.8294
vt 25.5247 1.9685
v 8.58956 0.05 -0.123807
vt -2.47579 1.9685
f 12/21/5 2/22/5 13/23/5 14/24/5 

vt 8.00629 -1.9685
vn 0.294085 0 0.955779
vt 22.9209 -1.9685
v 14.3881 0.05 -31.2178
vt 22.9209 1.9685
vt 8.00629 1.9685
f 2/25/6 4/26/6 15/27/6 13/28/6 

vt -25.4406 -1.9685
vn -0.95381 0 0.300411
vt -11.548 -1.9685
v 18.5637 0.05 -17.9602
vt -11.548 1.9685
vt -25.4406 1.9685
f 4/29/7 5/30/7 16/31/7 15/32/7 

vt -23.1027 -1.9685
vn -0.301464 0 -0.953478
v 11.458 -0.05 -15.7136
vt -15.6541 -1.9685
v 11.458 0.05 -15.7136
vt -15.6541 1.9685
vt -23.1027 1.9685
f 5/33/8 17/34/8 18/35/8 16/36/8 

v 11.4887 -0.05 -15.6184
vt -11.4829 15.6105
vt -11.4522 15.7056
f 5/5/1 19/37/1 17/38/1

f 19/37/1 5/5/1 6/6/1

vt 15.6547 -1.9685
vn 0.301464 0 0.953478
vt 23.2025 -1.9685
vt 23.2025 1.9685
v 11.4887 0.05 -15.6184
vt 15.6547 1.9685
f 19/39/9 6/40/9 8/41/9 20/42/9 

vt 18.5543 17.9511
vn 0 1 -0
vt 11.4829 15.6105
vt 18.6796 17.8859
f 16/43/10 20/44/10 8/45/10

vt 11.4522 15.7056
f 20/44/10 16/43/10 18/46/10

v 15.7035 0.05 -2.23738
vt 15.6956 2.23625
f 18/46/10 21/47/10 20/44/10

v 11.3628 0.05 -15.6828
vt 11.3571 15.6749
f 21/47/10 18/46/10 22/48/10

vt -15.7235 -1.9685
vn -0.307224 0 -0.951637
v 11.3628 -0.05 -15.6828
vt -15.6235 -1.9685
vt -15.6235 1.9685
vt -15.7235 1.9685
f 17/49/11 23/50/11 22/51/11 18/52/11 

v 15.7035 -0.05 -2.23738
vt -15.6956 2.23625
vt -11.3571 15.6749
f 17/38/1 24/53/1 23/54/1

f 24/53/1 17/38/1 19/37/1

v 15.8301 -0.05 -2.1707
vt -15.8221 2.1696
f 24/53/1 19/37/1 25/55/1

vt -2.79623 -1.9685
vn 0.951638 0 -0.307222
vt 11.3277 -1.9685
vt 11.3277 1.9685
v 15.8301 0.05 -2.1707
vt -2.79623 1.9685
f 25/56/12 19/57/12 20/58/12 26/59/12 

vt 15.8221 2.1696
f 20/44/10 21/47/10 26/60/10

vt 8.58521 0.123744
f 14/61/10 26/60/10 21/47/10

vt 8.5196 0
f 14/61/10 11/62/10 26/60/10

vt 0.125726 26.8158
f 13/63/10 11/62/10 14/61/10

vt 1.77636e-15 26.8817
f 11/62/10 13/63/10 9/64/10

vt 14.4463 31.3267
f 13/63/10 7/65/10 9/64/10

vt 14.3808 31.202
f 7/65/10 13/63/10 15/66/10

f 7/65/10 15/66/10 16/43/10

f 7/65/10 16/43/10 8/45/10

vt 8.16678 -1.9685
vn 0.2848 0 0.958587
vt 15.7848 -1.9685
vt 15.7848 1.9685
vt 8.16678 1.9685
f 10/67/13 25/68/13 26/69/13 11/70/13 

f 10/19/1 12/20/1 25/55/1

f 25/55/1 12/20/1 24/53/1

vt -15.6825 -1.9685
vn -0.284798 0 -0.958587
vt -8.26492 -1.9685
vt -8.26492 1.9685
vt -15.6825 1.9685
f 24/71/14 12/72/14 14/73/14 21/74/14 

vt -11.4277 -1.9685
vn -0.951637 0 0.307224
vt 2.69397 -1.9685
vt 2.69397 1.9685
vt -11.4277 1.9685
f 23/75/15 24/76/15 21/77/15 22/78/15 

